# Blender 4.2.0
# www.blender.org
mtllib untitled.mtl
o plane1
v -2.500000 -5.000000 1.500000
v 2.500000 -5.000000 1.500000
v -2.500000 -5.000000 -1.500000
v 2.500000 -5.000000 -1.500000
vn -0.0000 1.0000 -0.0000
vt 0.000000 0.000000
vt 1.000000 0.000000
vt 1.000000 1.000000
vt 0.000000 1.000000
s 0
usemtl plane1_Material.003
f 1/1/1 2/2/1 4/3/1 3/4/1
o plane2
v 2.500000 5.000006 1.500000
v -2.500000 4.999994 1.500000
v 2.500000 5.000006 -1.500000
v -2.500000 4.999994 -1.500000
vn -0.0000 -1.0000 -0.0000
vt 0.000000 0.000000
vt 1.000000 0.000000
vt 1.000000 1.000000
vt 0.000000 1.000000
s 0
usemtl plane2_Material.001
f 5/5/2 6/6/2 8/7/2 7/8/2
o plane3
v -4.999991 2.500000 1.500000
v -5.000009 -2.500000 1.500000
v -4.999991 2.500000 -1.500000
v -5.000009 -2.500000 -1.500000
vn 1.0000 -0.0000 -0.0000
vt 0.000000 0.000000
vt 1.000000 0.000000
vt 1.000000 1.000000
vt 0.000000 1.000000
s 0
usemtl plane3_Material.001
f 9/9/3 10/10/3 12/11/3 11/12/3
o plane4
v 5.000009 -2.500000 1.500000
v 4.999991 2.500000 1.500000
v 5.000009 -2.500000 -1.500000
v 4.999991 2.500000 -1.500000
vn -1.0000 -0.0000 -0.0000
vt 0.000000 0.000000
vt 1.000000 0.000000
vt 1.000000 1.000000
vt 0.000000 1.000000
s 0
usemtl plane4_Material.001
f 13/13/4 14/14/4 16/15/4 15/16/4
o plane5
v -2.500000 -2.500000 2.999991
v 2.500000 -2.500000 2.999991
v -2.500000 2.500000 3.000009
v 2.500000 2.500000 3.000009
vn -0.0000 -0.0000 1.0000
vt 0.000000 0.000000
vt 1.000000 0.000000
vt 1.000000 1.000000
vt 0.000000 1.000000
s 0
usemtl plane5_Material.001
f 17/17/5 18/18/5 20/19/5 19/20/5
o plane6
v -2.500000 2.500000 -3.000009
v 2.500000 2.500000 -3.000009
v -2.500000 -2.500000 -2.999991
v 2.500000 -2.500000 -2.999991
vn -0.0000 -0.0000 -1.0000
vt 0.000000 0.000000
vt 1.000000 0.000000
vt 1.000000 1.000000
vt 0.000000 1.000000
s 0
usemtl plane6_Material.001
f 21/21/6 22/22/6 24/23/6 23/24/6
o plane7
v -2.500000 -15.000000 1.500000
v 2.500000 -15.000000 1.500000
v -2.500000 -15.000000 -1.500000
v 2.500000 -15.000000 -1.500000
vn -0.0000 1.0000 -0.0000
vt 0.000000 0.000000
vt 1.000000 0.000000
vt 1.000000 1.000000
vt 0.000000 1.000000
s 0
usemtl plane7_Material.001
f 25/25/7 26/26/7 28/27/7 27/28/7
o plane8
v -4.999991 -7.500000 1.500000
v -5.000009 -12.500000 1.500000
v -4.999991 -7.500000 -1.500000
v -5.000009 -12.500000 -1.500000
vn 1.0000 -0.0000 -0.0000
vt 0.000000 0.000000
vt 1.000000 0.000000
vt 1.000000 1.000000
vt 0.000000 1.000000
s 0
usemtl plane8_Material.001
f 29/29/8 30/30/8 32/31/8 31/32/8
o plane9
v 5.000009 -12.500000 1.500000
v 4.999991 -7.500000 1.500000
v 5.000009 -12.500000 -1.500000
v 4.999991 -7.500000 -1.500000
vn -1.0000 -0.0000 -0.0000
vt 0.000000 0.000000
vt 1.000000 0.000000
vt 1.000000 1.000000
vt 0.000000 1.000000
s 0
usemtl plane9_Material.001
f 33/33/9 34/34/9 36/35/9 35/36/9
o plane10
v -2.500000 -12.500000 2.999991
v 2.500000 -12.500000 2.999991
v -2.500000 -7.500000 3.000009
v 2.500000 -7.500000 3.000009
vn -0.0000 -0.0000 1.0000
vt 0.000000 0.000000
vt 1.000000 0.000000
vt 1.000000 1.000000
vt 0.000000 1.000000
s 0
usemtl plane10_Material.001
f 37/37/10 38/38/10 40/39/10 39/40/10
o plane11
v -2.500000 -7.500000 -3.000009
v 2.500000 -7.500000 -3.000009
v -2.500000 -12.500000 -2.999991
v 2.500000 -12.500000 -2.999991
vn -0.0000 -0.0000 -1.0000
vt 0.000000 0.000000
vt 1.000000 0.000000
vt 1.000000 1.000000
vt 0.000000 1.000000
s 0
usemtl plane11_Material.001
f 41/41/11 42/42/11 44/43/11 43/44/11
o plane12
v -2.500000 -25.000000 1.500000
v 2.500000 -25.000000 1.500000
v -2.500000 -25.000000 -1.500000
v 2.500000 -25.000000 -1.500000
vn -0.0000 1.0000 -0.0000
vt 0.000000 0.000000
vt 1.000000 0.000000
vt 1.000000 1.000000
vt 0.000000 1.000000
s 0
usemtl plane12_Material.001
f 45/45/12 46/46/12 48/47/12 47/48/12
o plane13
v -4.999991 -17.500000 1.500000
v -5.000009 -22.500000 1.500000
v -4.999991 -17.500000 -1.500000
v -5.000009 -22.500000 -1.500000
vn 1.0000 -0.0000 -0.0000
vt 0.000000 0.000000
vt 1.000000 0.000000
vt 1.000000 1.000000
vt 0.000000 1.000000
s 0
usemtl plane13_Material.001
f 49/49/13 50/50/13 52/51/13 51/52/13
o plane14
v 5.000009 -22.500000 1.500000
v 4.999991 -17.500000 1.500000
v 5.000009 -22.500000 -1.500000
v 4.999991 -17.500000 -1.500000
vn -1.0000 -0.0000 -0.0000
vt 0.000000 0.000000
vt 1.000000 0.000000
vt 1.000000 1.000000
vt 0.000000 1.000000
s 0
usemtl plane14_Material.001
f 53/53/14 54/54/14 56/55/14 55/56/14
o plane15
v -2.500000 -22.500000 2.999991
v 2.500000 -22.500000 2.999991
v -2.500000 -17.500000 3.000009
v 2.500000 -17.500000 3.000009
vn -0.0000 -0.0000 1.0000
vt 0.000000 0.000000
vt 1.000000 0.000000
vt 1.000000 1.000000
vt 0.000000 1.000000
s 0
usemtl plane15_Material.001
f 57/57/15 58/58/15 60/59/15 59/60/15
o plane16
v -2.500000 -17.500000 -3.000009
v 2.500000 -17.500000 -3.000009
v -2.500000 -22.500000 -2.999991
v 2.500000 -22.500000 -2.999991
vn -0.0000 -0.0000 -1.0000
vt 0.000000 0.000000
vt 1.000000 0.000000
vt 1.000000 1.000000
vt 0.000000 1.000000
s 0
usemtl plane16_Material.001
f 61/61/16 62/62/16 64/63/16 63/64/16
